<?xml version="1.0" standalone="no"?><!-- Generator: Gravit.io --><svg xmlns="http://www.w3.org/2000/svg" xmlns:xlink="http://www.w3.org/1999/xlink" style="isolation:isolate" viewBox="349.646 298 137.459 126" width="137.459" height="126"><g id="checkmark"><path d=" M 412.647 424 C 377.911 424 349.646 395.737 349.646 361.001 C 349.646 326.265 377.911 298 412.647 298 C 424.726 298 436.478 301.442 446.632 307.959 C 448.626 309.243 449.21 311.9 447.926 313.899 C 446.638 315.898 443.986 316.476 441.987 315.193 C 433.225 309.563 423.076 306.591 412.647 306.591 C 382.647 306.591 358.237 331 358.237 361.001 C 358.237 391 382.647 415.409 412.647 415.409 C 442.646 415.409 467.056 391 467.056 361.001 C 467.056 359.207 466.97 357.432 466.804 355.686 C 466.575 353.32 468.305 351.224 470.664 350.995 C 473.035 350.777 475.125 352.496 475.355 354.855 C 475.549 356.877 475.646 358.927 475.646 361.001 C 475.646 395.737 447.383 424 412.647 424 L 412.647 424 Z " fill="rgb(255,255,255)"/><path d=" M 419.805 375.318 C 418.706 375.318 417.606 374.9 416.77 374.059 L 390.998 348.286 C 389.32 346.607 389.32 343.887 390.998 342.209 C 392.676 340.531 395.396 340.531 397.074 342.209 L 419.812 364.947 L 479.77 304.987 C 481.449 303.31 484.169 303.31 485.847 304.987 C 487.525 306.665 487.525 309.386 485.847 311.064 L 437.55 359.361 L 422.847 374.064 C 422.005 374.9 420.905 375.318 419.805 375.318 L 419.805 375.318 Z " fill="rgb(255,255,255)" fill-opacity="0.4"/></g></svg>