<?xml version="1.0" standalone="no"?><!-- Generator: Gravit.io --><svg xmlns="http://www.w3.org/2000/svg" xmlns:xlink="http://www.w3.org/1999/xlink" style="isolation:isolate" viewBox="332.064 280 186.872 185" width="186.872" height="185"><g id="icon-quality-assurance"><path d=" M 459.568 355.125 L 457.455 349.48 C 455.565 350.188 453.648 350.836 451.755 351.409 L 453.498 357.178 C 455.514 356.569 457.558 355.879 459.568 355.125 Z " fill="rgb(255,255,255)" fill-opacity="0.6"/><path d=" M 440.57 368.252 L 440.57 360.15 C 442.807 359.791 445.052 359.351 447.28 358.839 L 445.92 352.964 C 443.015 353.64 440.07 354.17 437.167 354.553 L 434.542 354.899 L 434.542 368.255 C 434.542 369.062 434.56 369.867 434.602 370.669 L 440.625 370.362 C 440.588 369.659 440.57 368.96 440.57 368.252 Z " fill="rgb(255,255,255)" fill-opacity="0.6"/><path d=" M 386.317 316.169 C 376.344 316.169 368.233 324.28 368.233 334.253 C 368.233 344.227 376.344 352.337 386.317 352.337 C 396.291 352.337 404.402 344.227 404.402 334.253 C 404.402 324.28 396.291 316.169 386.317 316.169 Z  M 386.317 346.309 C 379.668 346.309 374.261 340.902 374.261 334.253 C 374.261 327.604 379.668 322.197 386.317 322.197 C 392.966 322.197 398.373 327.604 398.373 334.253 C 398.373 340.902 392.966 346.309 386.317 346.309 Z " fill="rgb(32,137,127)"/><path d=" M 466.124 333.614 L 464.686 332.833 L 463.248 333.614 C 451.71 339.865 438.65 343.214 425.482 343.292 L 422.486 343.31 L 422.486 368.252 C 422.486 394.405 439.03 417.969 463.655 426.884 L 464.683 427.255 L 465.711 426.884 C 490.335 417.969 506.88 394.405 506.88 368.252 L 506.88 343.31 L 503.884 343.292 C 490.724 343.214 477.667 339.865 466.124 333.614 Z  M 500.852 368.252 C 500.852 391.511 486.363 412.504 464.683 420.832 C 443.003 412.501 428.514 391.508 428.514 368.252 L 428.514 349.248 C 441.107 348.733 453.522 345.447 464.686 339.672 C 475.853 345.447 488.265 348.733 500.852 349.248 L 500.852 368.252 Z " fill="rgb(255,255,255)" fill-opacity="0.4"/><path d=" M 452.627 372.188 L 439.322 385.492 L 458.655 404.824 L 496.071 367.408 L 482.767 354.104 L 458.655 378.216 L 452.627 372.188 Z  M 487.547 367.408 L 458.655 396.301 L 447.846 385.492 L 452.627 380.712 L 458.655 386.74 L 482.767 362.627 L 487.547 367.408 Z " fill="rgb(32,137,127)"/><path d=" M 518.936 331.239 L 504.381 331.239 C 490.836 331.239 477.722 327.27 466.338 319.677 L 464.568 318.649 L 462.908 319.755 C 456.044 324.334 448.488 327.577 440.57 329.428 L 440.57 322.824 L 432.628 320.955 C 431.628 317.462 430.232 314.098 428.466 310.912 L 432.764 303.971 L 416.599 287.806 L 409.658 292.104 C 406.472 290.338 403.109 288.943 399.615 287.942 L 397.747 280 L 374.888 280 L 373.019 287.942 C 369.526 288.943 366.162 290.338 362.976 292.104 L 356.035 287.806 L 339.871 303.971 L 344.169 310.912 C 342.402 314.098 341.007 317.462 340.006 320.955 L 332.064 322.824 L 332.064 345.682 L 340.006 347.551 C 341.007 351.044 342.402 354.408 344.169 357.594 L 339.871 364.535 L 356.035 380.7 L 362.976 376.402 C 366.162 378.168 369.526 379.563 373.019 380.564 L 374.888 388.506 L 397.747 388.506 L 399.615 380.564 C 403.109 379.563 406.472 378.168 409.658 376.402 L 411.048 377.261 C 412.663 390.29 417.672 402.513 425.349 412.766 L 415.21 449.945 L 430.093 446.222 L 441.357 464.997 L 451.463 434.679 C 455.393 436.665 459.514 438.347 463.833 439.619 L 464.683 439.872 L 465.533 439.622 C 469.852 438.35 473.972 436.668 477.902 434.682 L 488.009 465 L 499.272 446.225 L 514.156 449.948 L 504.016 412.769 C 513.441 400.177 518.936 384.642 518.936 368.252 L 518.936 331.239 Z  M 409.724 369.355 L 408.148 370.313 C 404.486 372.532 400.532 374.174 396.384 375.187 L 394.588 375.627 L 392.972 382.478 L 379.662 382.478 L 378.05 375.627 L 376.253 375.187 C 372.106 374.174 368.151 372.532 364.489 370.313 L 362.913 369.355 L 356.927 373.059 L 347.514 363.646 L 351.218 357.66 L 350.26 356.084 C 348.042 352.422 346.399 348.467 345.386 344.32 L 344.946 342.524 L 338.092 340.908 L 338.092 327.598 L 344.943 325.986 L 345.383 324.189 C 346.396 320.042 348.039 316.087 350.257 312.425 L 351.215 310.849 L 347.511 304.86 L 356.924 295.447 L 362.91 299.151 L 364.486 298.193 C 368.148 295.975 372.103 294.332 376.25 293.319 L 378.047 292.879 L 379.662 286.028 L 392.972 286.028 L 394.585 292.879 L 396.381 293.319 C 400.529 294.332 404.483 295.975 408.145 298.193 L 409.721 299.151 L 415.707 295.447 L 425.12 304.86 L 421.416 310.846 L 422.374 312.422 C 424.593 316.084 426.235 320.039 427.248 324.186 L 427.688 325.983 L 434.542 327.598 L 434.542 330.558 C 431.392 330.998 428.204 331.239 424.985 331.239 L 422.332 331.239 C 420.792 312.703 405.246 298.084 386.317 298.084 C 366.373 298.084 350.148 314.309 350.148 334.253 C 350.148 354.197 366.373 370.422 386.317 370.422 C 395.299 370.422 403.859 367.049 410.43 361.175 L 410.43 368.255 C 410.43 368.785 410.484 369.307 410.496 369.834 L 409.724 369.355 Z  M 410.43 331.239 L 410.43 352.274 C 404.742 359.864 395.815 364.394 386.317 364.394 C 369.698 364.394 356.177 350.873 356.177 334.253 C 356.177 317.634 369.698 304.112 386.317 304.112 C 401.918 304.112 414.788 316.03 416.304 331.239 L 410.43 331.239 Z  M 439.784 450.659 L 432.963 439.293 L 423.734 441.599 L 430.06 418.397 C 434.738 423.524 440.127 428.008 446.107 431.686 L 439.784 450.659 Z  M 505.632 441.599 L 496.403 439.293 L 489.582 450.659 L 483.258 431.686 C 489.238 428.008 494.627 423.524 499.305 418.397 L 505.632 441.599 Z  M 512.908 368.252 C 512.908 398.073 493.123 424.811 464.683 433.584 C 436.242 424.811 416.458 398.073 416.458 368.252 L 416.458 337.267 L 424.985 337.267 C 439.069 337.267 452.723 333.322 464.68 325.79 C 476.579 333.307 490.266 337.267 504.381 337.267 L 512.908 337.267 L 512.908 368.252 Z " fill="rgb(255,255,255)"/></g></svg>