<?xml version="1.0" standalone="no"?><!-- Generator: Gravit.io --><svg xmlns="http://www.w3.org/2000/svg" xmlns:xlink="http://www.w3.org/1999/xlink" style="isolation:isolate" viewBox="345.539 257 159.921 182.767" width="159.921" height="182.767"><g id="user"><path d=" M 425.5 348.383 C 399.054 344.679 378.566 324.192 379.808 302.691 C 379.808 277.497 400.306 257 425.5 257 C 450.694 257 471.192 277.498 471.192 302.692 C 471.192 327.886 450.694 348.383 425.5 348.383 L 425.5 348.383 Z  M 425.5 268.423 C 406.603 268.423 391.231 283.795 391.231 302.692 C 391.231 321.589 406.603 336.961 425.5 336.961 C 444.397 336.961 459.769 321.589 459.769 302.692 C 459.769 283.795 444.397 268.423 425.5 268.423 L 425.5 268.423 Z " fill="rgb(255,255,255)"/><path d=" M 499.749 439.767 L 351.251 439.767 C 348.094 439.767 345.539 437.212 345.539 434.055 L 345.539 394.739 C 345.539 388.838 348.557 383.293 353.409 380.259 C 396.301 353.503 454.738 353.509 497.585 380.253 C 502.443 383.293 505.461 388.838 505.461 394.738 L 505.461 434.055 C 505.461 437.212 502.906 439.767 499.749 439.767 L 499.749 439.767 Z  M 356.962 428.344 L 494.038 428.344 L 494.038 394.739 C 494.038 392.748 493.078 390.907 491.533 389.942 C 452.317 365.462 398.711 365.445 359.462 389.948 C 357.922 390.907 356.963 392.748 356.963 394.739 L 356.962 428.344 Z " fill="rgb(255,255,255)"/></g></svg>