<?xml version="1.0" standalone="no"?><!-- Generator: Gravit.io --><svg xmlns="http://www.w3.org/2000/svg" xmlns:xlink="http://www.w3.org/1999/xlink" style="isolation:isolate" viewBox="332.131 251.767 188.737 188" width="188.737" height="188"><g id="web-analytics"><path d=" M 504.28 251.767 L 348.72 251.767 C 339.573 251.767 332.131 259.208 332.131 268.355 L 332.131 423.178 C 332.131 432.325 339.573 439.767 348.72 439.767 L 504.28 439.767 C 513.427 439.767 520.869 432.325 520.869 423.178 L 520.869 268.355 C 520.869 259.208 513.427 251.767 504.28 251.767 Z  M 348.72 262.825 L 504.28 262.825 C 507.329 262.825 509.81 265.306 509.81 268.355 L 509.81 296.002 L 343.19 296.002 L 343.19 268.355 C 343.19 265.306 345.671 262.825 348.72 262.825 Z  M 504.28 428.708 L 348.72 428.708 C 345.671 428.708 343.19 426.227 343.19 423.178 L 343.19 307.061 L 509.81 307.061 L 509.81 423.178 C 509.81 426.227 507.329 428.708 504.28 428.708 Z " fill="rgb(255,255,255)"/><path d=" M 492.853 366.041 L 448.618 366.041 C 445.564 366.041 443.088 368.517 443.088 371.571 C 443.088 374.624 445.564 377.1 448.618 377.1 L 492.853 377.1 C 495.907 377.1 498.382 374.624 498.382 371.571 C 498.382 368.517 495.907 366.041 492.853 366.041 Z " fill="rgb(255,255,255)" fill-opacity="0.3"/><path d=" M 492.853 345.767 L 448.618 345.767 C 445.564 345.767 443.088 348.242 443.088 351.296 C 443.088 354.35 445.564 356.825 448.618 356.825 L 492.853 356.825 C 495.907 356.825 498.382 354.35 498.382 351.296 C 498.382 348.242 495.907 345.767 492.853 345.767 Z " fill="rgb(255,255,255)" fill-opacity="0.3"/><path d=" M 492.853 386.316 L 448.618 386.316 C 445.564 386.316 443.088 388.791 443.088 391.845 C 443.088 394.899 445.564 397.374 448.618 397.374 L 492.853 397.374 C 495.907 397.374 498.382 394.899 498.382 391.845 C 498.382 388.791 495.907 386.316 492.853 386.316 Z " fill="rgb(255,255,255)" fill-opacity="0.3"/><path d=" M 492.853 406.59 L 448.618 406.59 C 445.564 406.59 443.088 409.066 443.088 412.12 C 443.088 415.173 445.564 417.649 448.618 417.649 L 492.853 417.649 C 495.907 417.649 498.382 415.173 498.382 412.12 C 498.382 409.066 495.907 406.59 492.853 406.59 Z " fill="rgb(255,255,255)" fill-opacity="0.3"/><path d=" M 426.5 406.59 L 365.676 406.59 L 365.676 392.767 L 382.453 380.185 L 395.786 389.073 C 397.789 390.409 400.427 390.295 402.307 388.79 L 429.954 366.673 C 432.339 364.765 432.726 361.285 430.818 358.901 C 428.91 356.517 425.431 356.13 423.046 358.038 L 398.556 377.629 L 385.332 368.813 C 383.382 367.513 380.823 367.584 378.947 368.991 L 365.677 378.943 L 365.677 345.767 C 365.677 342.713 363.201 340.238 360.147 340.238 C 357.094 340.238 354.618 342.713 354.618 345.767 L 354.618 412.12 C 354.618 415.174 357.094 417.649 360.147 417.649 L 426.5 417.649 C 429.554 417.649 432.03 415.174 432.03 412.12 C 432.03 409.066 429.554 406.59 426.5 406.59 L 426.5 406.59 Z " fill="rgb(255,255,255)"/><path d=" M 354.618 279.414 C 354.618 276.362 357.095 273.884 360.147 273.884 C 363.199 273.884 365.676 276.362 365.676 279.414 C 365.676 282.465 363.199 284.943 360.147 284.943 C 357.095 284.943 354.618 282.465 354.618 279.414 Z " fill="rgb(255,255,255)" fill-opacity="0.3"/><path d=" M 376.735 279.414 C 376.735 276.362 379.213 273.884 382.265 273.884 C 385.316 273.884 387.794 276.362 387.794 279.414 C 387.794 282.465 385.316 284.943 382.265 284.943 C 379.213 284.943 376.735 282.465 376.735 279.414 Z " fill="rgb(255,255,255)" fill-opacity="0.3"/><path d=" M 398.853 279.414 C 398.853 276.362 401.331 273.884 404.382 273.884 C 407.434 273.884 409.912 276.362 409.912 279.414 C 409.912 282.465 407.434 284.943 404.382 284.943 C 401.331 284.943 398.853 282.465 398.853 279.414 Z " fill="rgb(255,255,255)" fill-opacity="0.3"/><path d=" M 459.676 284.943 L 492.853 284.943 C 495.907 284.943 498.382 282.467 498.382 279.414 C 498.382 276.36 495.907 273.884 492.853 273.884 L 459.676 273.884 C 456.623 273.884 454.147 276.36 454.147 279.414 C 454.147 282.467 456.623 284.943 459.676 284.943 Z " fill="rgb(255,255,255)" fill-opacity="0.4"/><path d=" M 360.147 329.178 L 493.324 329.178 C 496.377 329.178 498.853 326.703 498.853 323.649 C 498.853 320.595 496.377 318.12 493.324 318.12 L 360.147 318.12 C 357.093 318.12 354.618 320.595 354.618 323.649 C 354.618 326.703 357.093 329.178 360.147 329.178 Z " fill="rgb(255,255,255)" fill-opacity="0.6"/></g></svg>